<svg width="512" height="512" xmlns="http://www.w3.org/2000/svg">
 <!--! Font Awesome Pro 6.1.0 by @fontawesome - https://fontawesome.com License - https://fontawesome.com/license (Commercial License) Copyright 2022 Fonticons, Inc. -->

 <g>
  <title>background</title>
  <rect fill="none" id="canvas_background" height="402" width="582" y="-1" x="-1"/>
 </g>
 <g>
  <title>Layer 1</title>
  <path fill="#ffffff" id="svg_1" d="m332.8,224.1c28.29,0 54.88,10.99 74.86,30.97l19.59,19.59c40.01,-17.74 71.25,-53.3 81.62,-96.65c5.725,-23.92 5.34,-47.08 0.2148,-68.4c-2.613,-10.88 -16.43,-14.51 -24.34,-6.604l-68.9,68.9l-75.6,0l0,-74.706l68.9,-68.9c7.912,-7.912 4.275,-21.73 -6.604,-24.34c-21.32,-5.125 -44.48,-5.51 -68.4,0.2148c-55.3,13.23 -98.39,60.22 -107.2,116.4c-1.4408,8.3252 -1.7408,16.4252 -1.6408,24.4252l82.78,82.86c8.12,-2.76 16.42,-3.76 24.72,-3.76zm52.2,54.5c-23.16,-23.16 -57.57,-27.57 -85.39,-13.9l-107.51,-106.7l0,-62.01l-127.1,-95.99l-64,63.1l96,127.1l62.04,0.0077l106.7,106.6c-13.67,27.82 -9.251,62.23 13.91,85.39l117,117.1c14.62,14.5 38.21,14.5 52.71,-0.0016l52.75,-52.75c14.5,-14.5 14.5,-38.08 -0.0016,-52.71l-117.1084,-115.2361zm-156.1,28.4l-59.2,-59.1l-148.9,148.9c-26.37,26.37 -26.37,69.08 0,95.45c13.16,13.15 30.41,19.75 47.7,19.75s34.54,-6.592 47.72,-19.78l119.1,-119.1c-8.82,-20.82 -11.72,-43.72 -6.42,-66.12zm-163.9,165c-13.25,0 -24,-10.75 -24,-24c0,-13.26 10.75,-24 24,-24s24,10.7 24,24c0,13.3 -10.75,24 -24,24z"/>
 </g>
</svg>